<?xml version="1.0" encoding="UTF-8"?>
<!DOCTYPE svg PUBLIC "-//W3C//DTD SVG 1.1//EN" "http://www.w3.org/Graphics/SVG/1.1/DTD/svg11.dtd">
<!-- Creator: CorelDRAW X6 -->
<svg xmlns="http://www.w3.org/2000/svg" xml:space="preserve" width="210.72mm" height="79.7211mm" version="1.1" style="shape-rendering:geometricPrecision; text-rendering:geometricPrecision; image-rendering:optimizeQuality; fill-rule:evenodd; clip-rule:evenodd"
viewBox="0 0 17837 6748"
 xmlns:xlink="http://www.w3.org/1999/xlink">
 <defs>
  <style type="text/css">
   <![CDATA[
    .fil5 {fill:#222222;fill-rule:nonzero}
    .fil2 {fill:url(#id0)}
    .fil0 {fill:url(#id1)}
    .fil1 {fill:url(#id2)}
    .fil3 {fill:url(#id3)}
    .fil4 {fill:url(#id4)}
   ]]>
  </style>
  <linearGradient id="id0" gradientUnits="userSpaceOnUse" x1="3570.75" y1="3869.16" x2="7132.77" y2="3869.16">
   <stop offset="0" style="stop-color:#8AD04C"/>
   <stop offset="1" style="stop-color:#009B4C"/>
  </linearGradient>
  <linearGradient id="id1" gradientUnits="userSpaceOnUse" x1="567.745" y1="1840.89" x2="4246.43" y2="1840.89">
   <stop offset="0" style="stop-color:#EA3442"/>
   <stop offset="1" style="stop-color:#B04B87"/>
  </linearGradient>
  <linearGradient id="id2" gradientUnits="userSpaceOnUse" x1="6200.06" y1="-77.2078" x2="3033.59" y2="3755.9">
   <stop offset="0" style="stop-color:#449FCF"/>
   <stop offset="1" style="stop-color:#01BBF2"/>
  </linearGradient>
  <linearGradient id="id3" gradientUnits="userSpaceOnUse" x1="2478.11" y1="6398.05" x2="4673.83" y2="3725">
   <stop offset="0" style="stop-color:#4320B3"/>
   <stop offset="0.701961" style="stop-color:#7538C3"/>
   <stop offset="1" style="stop-color:#A851D4"/>
  </linearGradient>
  <radialGradient id="id4" gradientUnits="objectBoundingBox" cx="140%" cy="50%" r="40%" fx="140%" fy="50%">
   <stop offset="0" style="stop-color:#FFF000"/>
   <stop offset="1" style="stop-color:#F29B34"/>
  </radialGradient>
 </defs>
 <g id="图层_x0020_1">
  <metadata id="CorelCorpID_0Corel-Layer"/>
  <g id="_906654032">
   <path class="fil0" d="M2407 2c1016,0 1839,824 1839,1839 0,569 -258,1078 -664,1415 -309,-952 -783,-1229 -783,-1229 206,392 376,888 419,1465 -211,104 -444,168 -691,184 -3,-4 -6,-8 -8,-12 0,4 0,9 -1,13 -37,2 -74,3 -111,3 -1016,0 -1839,-823 -1839,-1839 0,-1016 824,-1839 1839,-1839z"/>
   <path class="fil1" d="M4617 0c1016,0 1839,824 1839,1839 0,1016 -824,1839 -1839,1839 -28,0 -56,-1 -84,-2 133,-143 278,-269 389,-364 -161,-107 -554,78 -848,285 -160,-49 -311,-120 -449,-209 -308,-1006 -804,-1296 -804,-1296 128,243 242,526 320,844 -228,-306 -363,-686 -363,-1098 0,-1016 824,-1839 1839,-1839z"/>
   <path class="fil2" d="M5293 2030c1016,0 1839,824 1839,1839 0,1016 -824,1839 -1839,1839 -417,0 -801,-139 -1109,-372 90,-542 418,-1056 990,-1271 -195,-215 -614,40 -995,349 -37,-429 464,-860 743,-1101 -242,-161 -1006,337 -1173,578 -49,-255 -110,-476 -178,-667 261,-697 934,-1194 1723,-1194z"/>
   <path class="fil3" d="M3621 3375c215,5 420,47 611,120 -214,129 -408,288 -483,396 -37,-190 -80,-361 -128,-516zm932 280c146,92 279,204 393,332 -214,20 -500,210 -768,427 -23,-268 163,-536 374,-759zm499 462c228,306 363,686 363,1097 0,641 -328,1205 -825,1535 -696,-652 -555,-2143 463,-2631zm-2522 2610c-480,-332 -794,-886 -794,-1513 0,-896 641,-1642 1489,-1806 33,288 35,597 -5,926 -107,102 -512,-347 -680,-603 -20,341 215,524 271,817 -209,0 -811,452 -777,817 815,-1113 1826,-38 495,1363z"/>
   <path class="fil4" d="M1839 2134c455,0 870,165 1191,438 175,490 273,1085 190,1761 -107,102 -512,-347 -680,-603 -20,341 215,524 271,817 -209,0 -811,452 -777,817 468,-640 1002,-556 1118,-104 -334,341 -799,552 -1314,552 -1016,0 -1839,-824 -1839,-1839 0,-1016 824,-1839 1839,-1839z"/>
  </g>
  <g id="_915947584">
   <path class="fil5" d="M9917 1158c-41,0 -76,15 -106,47 -29,31 -44,67 -44,109l0 208c0,42 15,78 44,109 29,32 65,47 106,47l427 0c44,0 81,15 112,46 31,31 46,67 46,108l0 577c0,41 7,76 22,106 15,29 29,44 44,44 21,0 37,16 51,48 13,32 20,68 20,109l0 100c0,44 -15,80 -44,109 -29,29 -65,43 -106,43l-1233 0c-44,0 -81,-15 -112,-43 -31,-29 -46,-65 -46,-109l0 -100c0,-41 12,-77 37,-109 25,-32 57,-48 95,-48 35,0 65,-15 90,-45 25,-29 37,-65 37,-106l0 -173c0,-42 -12,-78 -37,-109 -25,-32 -55,-47 -90,-47 -38,0 -70,-15 -95,-43 -25,-29 -37,-64 -37,-105l0 -100c0,-41 12,-76 37,-107 25,-30 57,-45 95,-45 35,0 65,-15 90,-47 25,-31 37,-67 37,-109l0 -208c0,-42 -12,-78 -37,-109 -25,-32 -55,-47 -90,-47 -38,0 -70,-15 -95,-45 -25,-29 -37,-67 -37,-111l0 -103c0,-41 15,-77 46,-106 31,-30 68,-45 112,-45l1233 0c41,0 76,15 106,45 29,29 44,65 44,106l0 103c0,44 -15,81 -44,111 -29,30 -65,45 -106,45l-572 0zm0 920c-41,0 -76,15 -106,47 -29,31 -44,67 -44,109l0 173c0,42 15,77 44,106 29,30 65,45 106,45l26 0c41,0 76,-15 106,-45 29,-29 44,-65 44,-106l0 -173c0,-42 -15,-78 -44,-109 -29,-32 -65,-47 -106,-47l-26 0zm-2214 -929c0,-44 15,-81 44,-110 29,-29 65,-44 106,-44l154 0c44,0 81,-12 112,-38 31,-26 46,-54 46,-87 0,-33 15,-62 44,-85 29,-24 66,-36 110,-36l57 0c41,0 76,12 106,36 29,23 44,52 44,85 0,33 16,62 48,87 32,26 69,38 110,38l150 0c44,0 81,15 110,44 29,29 44,66 44,110l0 101c0,41 -15,77 -44,108 -29,31 -66,46 -110,46l-150 0c-41,0 -78,15 -110,44 -32,29 -48,65 -48,106l0 3086c0,41 -15,77 -44,108 -29,31 -65,46 -106,46l-57 0c-44,0 -81,-15 -110,-46 -29,-31 -44,-67 -44,-108l0 -3086c0,-41 -15,-76 -46,-106 -31,-29 -68,-44 -112,-44l-154 0c-41,0 -76,-15 -106,-46 -29,-31 -44,-67 -44,-108l0 -101zm1554 3641c-41,0 -77,-15 -108,-46 -31,-31 -46,-67 -46,-107l0 -1313c0,-40 15,-77 46,-109 31,-32 67,-48 108,-48l1233 0c41,0 76,16 106,48 29,32 44,69 44,109l0 984c0,44 -10,90 -31,140 -21,50 -45,91 -75,123l-106 109c-32,32 -75,59 -128,79 -53,21 -100,31 -141,31l-903 0zm255 -564c0,44 15,81 44,110 29,29 66,44 110,44l409 0c44,0 81,-15 110,-44 29,-29 44,-66 44,-110l0 -502c0,-41 -15,-76 -44,-106 -29,-29 -66,-44 -110,-44l-409 0c-44,0 -81,15 -110,44 -29,29 -44,65 -44,106l0 502zm-700 568c-41,0 -77,-15 -108,-46 -31,-31 -46,-67 -46,-108l0 -2813c0,-44 15,-81 46,-112 31,-31 67,-46 108,-46l22 0c44,0 81,15 110,46 29,31 44,68 44,112l0 2813c0,41 -15,77 -44,108 -29,31 -66,46 -110,46l-22 0zm-766 -154c0,41 -15,77 -46,108 -31,31 -67,46 -108,46l-18 0c-44,0 -81,-15 -110,-46 -29,-31 -44,-67 -44,-108l0 -2813c0,-44 15,-81 44,-112 29,-31 66,-46 110,-46l18 0c41,0 77,15 108,46 31,31 46,68 46,112l0 2813zm5706 -2854c0,44 -15,82 -44,113 -29,32 -65,47 -106,47l-445 0c-41,0 -77,-15 -108,-47 -31,-31 -46,-69 -46,-113l0 -94c0,-44 15,-81 46,-111 31,-30 67,-45 108,-45l445 0c41,0 76,15 106,45 29,29 44,67 44,111l0 94zm-748 609c0,-44 15,-81 46,-110 31,-29 67,-44 108,-44l436 0c41,0 78,15 110,44 32,29 48,66 48,110l0 1352c0,41 -7,90 -22,147 -15,57 -34,103 -57,139l-44 66c-23,35 -58,65 -103,90 -45,25 -90,37 -134,37l-233 0c-41,0 -77,-15 -108,-44 -31,-29 -46,-66 -46,-110l0 -1677zm286 1272c0,41 9,77 26,108 18,31 38,46 62,46 26,0 48,-15 66,-46 18,-31 26,-67 26,-108l0 -867c0,-44 -9,-81 -26,-110 -18,-29 -40,-44 -66,-44 -23,0 -44,15 -62,44 -18,29 -26,66 -26,110l0 867zm-409 964c0,44 -16,81 -48,110 -32,29 -69,44 -110,44l-57 0c-41,0 -77,-15 -108,-44 -31,-29 -46,-66 -46,-110l0 -3729c0,-41 15,-76 46,-106 31,-29 67,-44 108,-44l1435 -4c41,0 76,15 106,44 29,29 44,65 44,106l0 3416c0,41 -10,88 -31,141 -21,54 -43,96 -66,128l-84 88c-29,32 -68,60 -117,84 -48,23 -95,35 -139,35l-181 0c-41,0 -78,-15 -110,-46 -32,-31 -48,-67 -48,-108l0 -106c0,-41 16,-76 48,-106 32,-29 69,-44 110,-44l97 0c41,0 76,-15 106,-44 29,-29 44,-66 44,-110l0 -2914c0,-41 -15,-77 -44,-108 -29,-31 -65,-46 -106,-46l-700 0c-41,0 -76,15 -106,46 -29,31 -44,67 -44,108l0 3319zm-1021 -3029c0,-41 -15,-76 -46,-106 -31,-29 -67,-44 -108,-44l-242 0c-41,0 -76,-15 -106,-46 -29,-31 -44,-67 -44,-108l0 -101c0,-44 15,-81 44,-110 29,-29 65,-44 106,-44l242 0c41,0 77,-14 108,-42 31,-28 46,-61 46,-99 0,-41 15,-76 47,-103 31,-28 68,-42 109,-42l94 -4c44,0 82,14 113,43 32,28 47,63 47,105 0,39 8,73 23,101 15,29 32,43 49,43 23,0 41,15 56,44 14,29 21,66 21,110l0 101c0,41 -7,77 -21,108 -15,31 -33,46 -56,46 -17,0 -34,15 -49,44 -15,29 -23,65 -23,106l0 40c0,41 8,76 23,106 15,29 32,44 49,44 23,0 41,15 56,46 14,31 21,67 21,108l0 101c0,41 -7,77 -21,108 -15,31 -33,46 -56,46 -17,0 -34,15 -49,44 -15,29 -23,65 -23,106l0 2285c0,41 -15,77 -47,108 -31,31 -69,46 -113,46l-94 0c-41,0 -78,-15 -109,-46 -32,-31 -47,-67 -47,-108l0 -2285c0,-41 -8,-76 -24,-106 -16,-29 -36,-44 -59,-44 -23,0 -42,15 -55,44 -13,29 -20,65 -20,106l0 2289c0,41 -15,77 -44,108 -29,31 -66,46 -110,46l-62 0c-41,0 -77,-15 -108,-46 -31,-31 -46,-67 -46,-108l0 -2694c0,-41 15,-77 46,-108 31,-31 67,-46 108,-46l220 0c41,0 77,-15 108,-44 31,-29 46,-65 46,-106l0 -40zm5979 -348c0,41 -6,76 -18,106 -12,29 -26,44 -44,44 -18,0 -32,15 -42,46 -10,31 -15,67 -15,108l0 2747c0,44 -9,93 -26,147 -18,54 -38,98 -62,130l-66 84c-23,32 -59,62 -106,88 -47,26 -91,40 -132,40l-145 0c-44,0 -81,-15 -110,-45 -29,-31 -44,-66 -44,-107l0 -109c0,-41 15,-76 44,-105 29,-29 66,-43 110,-43l62 0c41,0 77,-15 108,-44 31,-29 46,-66 46,-110l0 -79c0,-42 -10,-77 -31,-106 -21,-29 -47,-44 -79,-44 -32,0 -67,-12 -103,-37 -37,-25 -67,-55 -90,-90l-35 -66c-23,-35 -43,-81 -59,-136 -16,-57 -24,-105 -24,-146l0 -1622c0,-44 14,-81 42,-112 28,-31 61,-46 99,-46 41,0 76,15 103,46 28,31 42,68 42,112l0 1543c0,41 6,77 18,108 12,31 28,46 48,46 18,0 34,-15 48,-46 15,-31 22,-67 22,-108l0 -1887c0,-41 -15,-77 -46,-108 -31,-31 -67,-46 -108,-46l-216 0c-41,0 -76,-15 -106,-44 -29,-29 -44,-65 -44,-106l0 -101c0,-41 15,-76 44,-106 29,-29 65,-44 106,-44l216 0c41,0 77,-12 108,-37 31,-25 46,-54 46,-86 0,-35 15,-65 44,-90 29,-25 66,-37 110,-37l13 0c41,0 77,12 108,37 31,25 46,55 46,90 0,32 5,61 15,86 10,25 24,37 42,37 18,0 32,15 44,44 12,29 18,65 18,106l0 101zm-1162 3020c15,29 34,55 57,77 23,22 43,33 57,33 15,0 27,15 37,43 10,29 15,64 15,105l0 109c0,41 -12,76 -35,107 -23,30 -54,45 -92,45 -38,0 -78,-13 -119,-40 -41,-26 -72,-60 -92,-101l-9 -9c-18,-38 -40,-57 -68,-57 -28,0 -52,18 -73,53l-9 18c-21,38 -51,70 -92,97 -41,26 -79,40 -114,40 -41,0 -76,-15 -103,-45 -28,-31 -42,-66 -42,-107l0 -109c0,-41 7,-76 22,-105 15,-29 29,-43 44,-43 15,0 34,-11 57,-33 23,-22 45,-48 66,-77 18,-32 26,-72 24,-119 -1,-48 -14,-90 -37,-128l-44 -92c-21,-38 -37,-85 -51,-141 -13,-56 -20,-104 -20,-146l0 -2112c0,-41 13,-78 40,-110 26,-32 59,-48 97,-48 41,0 76,16 106,48 29,32 44,69 44,110l0 1986c0,41 4,84 11,130 7,45 20,80 37,103 12,23 26,35 42,35 16,0 32,-12 46,-35 15,-23 26,-58 33,-103 7,-45 11,-89 11,-130l0 -2206c0,-44 -15,-81 -44,-110 -29,-29 -66,-44 -110,-44l-163 0c-44,0 -81,-15 -110,-44 -29,-29 -44,-65 -44,-106l0 -110c0,-41 15,-76 44,-106 29,-29 66,-44 110,-44l449 0c41,0 76,15 106,44 29,29 44,65 44,106l0 2746c0,41 -7,90 -20,145 -13,56 -30,103 -51,141l-48 97c-23,35 -35,77 -35,124 0,47 9,87 26,119zm-1001 -3496c44,0 82,15 113,43 32,29 47,64 47,104 0,37 4,68 12,93 9,24 20,37 34,37 17,0 30,15 40,47 10,31 15,69 15,113l0 94c0,44 -5,81 -15,111 -10,30 -23,45 -40,45 -14,0 -25,15 -34,45 -8,31 -12,68 -12,111l0 31c0,40 4,75 12,104 9,29 20,43 34,43 17,0 30,15 40,47 10,31 15,68 15,109l0 103c0,41 -5,77 -15,106 -10,30 -23,45 -40,45 -14,0 -25,15 -34,44 -8,29 -12,66 -12,110l0 2267c0,44 -15,81 -47,110 -31,29 -69,44 -113,44l-94 0c-44,0 -81,-15 -111,-44 -30,-29 -45,-66 -45,-110l0 -2267c0,-44 -8,-81 -24,-110 -16,-29 -36,-44 -59,-44 -18,0 -34,15 -51,44 -16,29 -24,66 -24,110l0 2272c0,41 -15,77 -46,108 -31,31 -67,46 -108,46l-18 0c-41,0 -77,-15 -108,-46 -31,-31 -46,-67 -46,-108l0 -2681c0,-41 15,-77 46,-108 31,-31 67,-46 108,-46l172 0c44,0 81,-15 112,-43 31,-29 46,-64 46,-104l0 -31c0,-43 -15,-80 -46,-111 -31,-30 -68,-45 -112,-45l-194 0c-41,0 -76,-15 -106,-45 -29,-29 -44,-67 -44,-111l0 -94c0,-44 15,-82 44,-113 29,-32 65,-47 106,-47l194 0c44,0 81,-12 112,-37 31,-25 46,-56 46,-93 0,-40 15,-76 45,-104 29,-29 67,-43 111,-43l94 0z"/>
   <path class="fil5" d="M7894 5109c47,55 85,141 89,220 164,128 334,-192 -80,-226l-9 7zm611 454l0 214 -371 0 0 -214 371 0zm376 391l-14 0c-27,69 -48,119 -63,138 -9,12 -18,16 -35,16 -17,1 -50,1 -85,1l-106 0c-35,0 -40,-5 -40,-22l0 -226c57,0 147,-30 149,-39l0 -235c25,-4 39,-16 46,-25l-22 -16c61,-29 130,-68 175,-99 27,-3 40,-7 51,-18l-168 -158 -98 98 -167 0c82,-56 179,-132 236,-183 31,0 46,-12 50,-27l-249 -59c-13,76 -40,189 -64,269l-63 0 0 -259c33,-5 40,-17 42,-34l-237 -18 0 312 -301 0c-7,-23 -17,-49 -30,-75l-14 1c7,54 -40,98 -81,115 -52,18 -91,57 -81,119 14,63 78,90 133,69 57,-21 98,-91 81,-193l757 0c-4,34 -9,74 -14,110l-99 -74 -78 85 -349 0 -186 -70 0 430 25 0c38,0 77,-10 106,-22 -30,186 -133,323 -372,417l4 16c364,-65 537,-220 575,-484l77 0 0 319c0,113 29,142 168,142l126 0c217,0 274,-35 274,-106 0,-34 -10,-55 -55,-72l-4 -143zm925 -448l-82 87 -21 0c43,-90 108,-232 142,-312 22,-4 40,-10 50,-21l-146 -133 -74 74 -215 0 12 37 207 0c-33,90 -98,237 -145,325 -17,9 -34,20 -46,30l154 91 51 -55 43 0c-8,107 -25,211 -55,308 -69,-59 -124,-139 -166,-252l-12 5c35,145 82,254 145,336 -44,100 -108,189 -201,258l9 14c117,-50 205,-115 270,-190 143,120 352,150 656,150l201 0c4,-73 38,-141 108,-156l0 -14c-80,1 -232,1 -296,1 -263,0 -456,-14 -600,-80 63,-108 94,-229 112,-356 29,-4 40,-9 48,-23l-150 -125zm554 38l-77 0 0 -132 77 0 0 132zm18 169l-95 0 0 -133 77 0 0 47 29 0c18,0 39,-3 59,-8l-69 94zm-95 -467l77 0 0 129 -77 0 0 -129zm249 129l-1 0 0 -103c25,-5 42,-17 50,-26l-158 -119 -76 82 -64 0 0 -89c37,-5 46,-18 48,-38l-227 -21 0 147 -201 0 12 36 189 0 0 129 -270 0 10 36 259 0 0 132 -181 0 12 37 169 0 0 133 -193 0 10 37 182 0 0 136 -248 0 10 37 237 0 0 156 35 0c69,0 143,-31 143,-44l0 -112 339 0c18,0 34,-7 38,-21 -64,-55 -171,-134 -171,-134l-93 119 -113 0 0 -136 291 0c20,0 33,-7 37,-21 -42,-39 -108,-93 -137,-116 33,-8 56,-20 57,-25l0 -176 149 0c18,0 31,-7 35,-21 -39,-50 -116,-129 -116,-129l-66 113zm1212 -168l0 202 -173 0 0 -202 173 0zm349 0l0 202 -171 0 0 -202 171 0zm-171 454l0 -215 171 0 0 215 -171 0zm-352 0l0 -215 173 0 0 215 -173 0zm0 36l523 0 0 72 33 0c63,0 155,-34 156,-44l0 -488c27,-5 44,-18 52,-29l-171 -130 -83 93 -497 0 -202 -77 0 700 27 0c80,0 162,-42 162,-61l0 -35zm173 39c44,64 81,155 85,241 166,136 343,-186 -76,-248l-9 7zm-370 80c9,76 -42,139 -86,166 -55,25 -94,72 -76,138 21,68 96,94 154,61 81,-43 121,-180 21,-367l-13 2zm775 106l-14 0c-33,80 -56,129 -74,151 -12,14 -21,18 -44,20 -21,1 -66,1 -108,1l-150 0c-42,0 -48,-5 -48,-23l0 -218c27,-5 39,-16 42,-34l-231 -17 0 307c0,123 42,149 205,149l159 0c262,0 334,-26 334,-106 0,-33 -13,-53 -66,-73l-4 -156zm-24 -108c71,85 123,208 128,324 185,154 362,-229 -117,-332l-10 8zm1780 -409c-8,138 -31,270 -78,391 -51,-81 -90,-171 -119,-271 26,-38 51,-77 74,-120l123 0zm279 0c20,0 34,-7 38,-21 -61,-56 -164,-138 -164,-138l-90 123 -167 0c31,-65 59,-137 82,-215 31,-1 47,-13 52,-30l-256 -59c-14,164 -51,332 -98,474 -44,-43 -87,-83 -87,-83l-70 107 0 -323 188 0c18,0 33,-7 36,-21 -61,-55 -163,-134 -163,-134l-91 119 -417 0 10 37 261 0 0 755 -68 14 0 -551c27,-4 35,-14 38,-28l-190 -17 0 627c-31,7 -57,10 -78,14l93 198c16,-5 29,-20 35,-37 276,-125 456,-223 572,-295l-3 -14c-76,18 -150,35 -223,51l0 -342 130 0c-12,27 -22,53 -34,78l14 9c55,-42 104,-90 147,-145 21,129 48,248 89,355 -85,149 -215,276 -415,375l8 13c209,-56 361,-141 472,-248 56,98 126,180 216,246 23,-85 73,-137 164,-156l4 -13c-112,-51 -206,-115 -284,-196 103,-149 151,-330 173,-529l74 0zm1318 -205l0 293 -326 0 0 -293 326 0zm-326 330l326 0 0 111 33 0c65,0 155,-38 156,-50l0 -361c27,-5 44,-18 52,-29l-171 -129 -83 91 -305 0 -197 -76 0 567 27 0c78,0 162,-42 162,-59l0 -66zm-210 579l0 -343 143 0 0 343 -143 0zm130 -379l-124 0 -185 -72 0 627 26 0c76,0 153,-40 153,-57l0 -82 143 0 0 116 31 0c63,0 149,-38 150,-50l0 -417c27,-5 43,-17 51,-27l-164 -126 -81 89zm465 379l0 -343 154 0 0 343 -154 0zm223 -469l-82 90 -134 0 -185 -72 0 627 26 0c76,0 153,-40 153,-57l0 -82 154 0 0 121 31 0c61,0 153,-31 154,-42l0 -429c27,-7 44,-18 52,-29l-168 -128zm1388 8l0 -173 72 0 0 1c0,57 -4,116 -18,172l-53 0zm72 -377l0 167 -72 0 0 -167 72 0zm239 0l0 167 -76 0 0 -167 76 0zm-99 377c20,-59 23,-117 23,-172l0 -1 76 0 0 173 -99 0zm81 302l-14 0 0 -171c34,-5 43,-17 46,-34l-154 -13c10,-16 20,-33 26,-48l115 0 0 44 30 0c57,0 139,-34 141,-44l0 -390c25,-4 39,-16 47,-25l-154 -116 -77 81 -181 0c47,-29 104,-64 141,-89 31,-3 50,-12 55,-37l-265 -48c-4,51 -12,123 -18,174l-21 0 -179 -69 0 291c-30,-38 -63,-76 -63,-76l-43 80 0 -328c31,-5 40,-17 42,-34l-199 -17 0 403 -56 0 0 -325c34,-5 44,-20 47,-38l-207 -20 0 604c0,223 -8,416 -63,584l14 10c153,-139 202,-338 209,-566l72 0 0 545 27 0c60,0 134,-42 136,-56l0 -461c26,-5 44,-17 52,-27l-153 -119 -76 82 -59 0 0 -177 319 0 0 254 25 0c72,0 146,-38 146,-55l0 -35 42 0c-31,89 -94,173 -216,246l9 12c124,-37 209,-82 269,-136l0 143 -338 0 10 37 327 0 0 317 31 0c66,0 143,-29 143,-40l0 -276 223 0c20,0 33,-7 36,-21 -56,-59 -156,-147 -156,-147l-89 132z"/>
  </g>
 </g>
</svg>
